<?xml version="1.0" encoding="utf-8"?><!--Generator: Adobe Illustrator 21.0.0, SVG Export Plug-In . SVG Version: 6.00 Build 0)--><svg version="1.1" id="圖層_1" xmlns="http://www.w3.org/2000/svg" xmlns:xlink="http://www.w3.org/1999/xlink" x="0px" y="0px" viewBox="0 0 100 100" enable-background="new 0 0 100 100" xml:space="preserve"><g><rect x="10" y="46.2" fill="#666666" stroke="#333333" stroke-width="3.5" stroke-linecap="round" stroke-linejoin="round" stroke-miterlimit="10" width="8.4" height="8.5"/><path fill="#666666" stroke="#333333" stroke-width="3.5" stroke-linecap="round" stroke-linejoin="round" stroke-miterlimit="10" d=" M57.4,64.1H23.7c-3.6,0-6.5-2.9-6.5-6.5V42c0-3.6,2.9-6.5,6.5-6.5h33.7c3.6,0,6.5,2.9,6.5,6.5v15.6C63.9,61.2,61,64.1,57.4,64.1z"/><rect x="27.8" y="64.1" fill="#666666" stroke="#333333" stroke-width="3.5" stroke-linecap="round" stroke-linejoin="round" stroke-miterlimit="10" width="25.4" height="7.2"/></g><g><circle fill="#E6E6E6" stroke="#333333" stroke-width="3.5" stroke-linecap="round" stroke-linejoin="round" stroke-miterlimit="10" cx="25.8" cy="32.2" r="12.9"/><circle fill="#E6E6E6" stroke="#333333" stroke-width="3.5" stroke-linecap="round" stroke-linejoin="round" stroke-miterlimit="10" cx="25.8" cy="32.2" r="4.6"/></g><g><circle fill="#E6E6E6" stroke="#333333" stroke-width="3.5" stroke-linecap="round" stroke-linejoin="round" stroke-miterlimit="10" cx="56.9" cy="27.6" r="16.5"/><circle fill="#E6E6E6" stroke="#333333" stroke-width="3.5" stroke-linecap="round" stroke-linejoin="round" stroke-miterlimit="10" cx="56.9" cy="27.6" r="7"/></g><g><rect x="63.9" y="46.7" fill="#666666" stroke="#333333" stroke-width="3.5" stroke-linecap="round" stroke-linejoin="round" stroke-miterlimit="10" width="6.4" height="8"/><polygon fill="#666666" stroke="#333333" stroke-width="3.5" stroke-linecap="round" stroke-linejoin="round" stroke-miterlimit="10" points=" 70.2,54.7 83,65.7 83,35.8 70.2,46.7 	"/><rect x="83" y="35.8" fill="#E6E6E6" stroke="#333333" stroke-width="3.5" stroke-linecap="round" stroke-linejoin="round" stroke-miterlimit="10" width="7" height="29.9"/></g><g><line fill="none" stroke="#333333" stroke-width="3.5" stroke-linecap="round" stroke-linejoin="round" stroke-miterlimit="10" x1="40.5" y1="72.6" x2="40.5" y2="88.7"/><line fill="none" stroke="#333333" stroke-width="3.5" stroke-linecap="round" stroke-linejoin="round" stroke-miterlimit="10" x1="48.1" y1="71.2" x2="54.4" y2="88.5"/><line fill="none" stroke="#333333" stroke-width="3.5" stroke-linecap="round" stroke-linejoin="round" stroke-miterlimit="10" x1="32.9" y1="71.2" x2="26.6" y2="88.5"/></g><metadata xmlns:d="https://loading.io/stock/">
<d:name>movie</d:name>
<d:tags>movie,camera,video,tape,recorder,show,play,cinema,theater,opera,projector</d:tags>
<d:license>by</d:license>
<d:slug>ueg3yl</d:slug>
</metadata></svg>